<svg xmlns="http://www.w3.org/2000/svg" viewBox="0 0 180 180">
  <defs>
    <linearGradient id="g" x1="0" y1="0" x2="0" y2="1">
      <stop offset="0%" stop-color="#004d7a"/>
      <stop offset="100%" stop-color="#003856"/>
    </linearGradient>
    <linearGradient id="a" x1="0" y1="0" x2="1" y2="1">
      <stop offset="0%" stop-color="#D4A853"/>
      <stop offset="100%" stop-color="#C8985A"/>
    </linearGradient>
  </defs>
  <rect width="180" height="180" rx="40" fill="#FAFAF7"/>
  <!-- Shield body -->
  <path d="M90 18L30 46v56c0 40.5 26.4 68 61.8 73.1 35.4-5.1 61.8-32.6 61.8-73.1V46L90 18z" fill="url(#g)"/>
  <!-- Inner shield highlight -->
  <path d="M90 32L39 55v47c0 32.6 21.4 55.1 50.6 59.1 29.2-4 50.6-26.5 50.6-59.1V55L90 32z" fill="none" stroke="#ffffff" stroke-width="2" opacity="0.12"/>
  <!-- Document lines -->
  <line x1="60" y1="68" x2="120" y2="68" stroke="#ffffff" stroke-width="5.5" stroke-linecap="round" opacity="0.7"/>
  <line x1="60" y1="88" x2="110" y2="88" stroke="#ffffff" stroke-width="5.5" stroke-linecap="round" opacity="0.5"/>
  <line x1="60" y1="108" x2="98" y2="108" stroke="#ffffff" stroke-width="5.5" stroke-linecap="round" opacity="0.35"/>
  <!-- AI spark node -->
  <circle cx="118" cy="112" r="15" fill="url(#a)"/>
  <circle cx="118" cy="112" r="6.5" fill="#ffffff"/>
  <!-- Connection lines -->
  <line x1="109" y1="103" x2="98" y2="88" stroke="url(#a)" stroke-width="3" opacity="0.5"/>
  <line x1="105" y1="114" x2="98" y2="108" stroke="url(#a)" stroke-width="3" opacity="0.5"/>
</svg>
