<svg xmlns="http://www.w3.org/2000/svg" viewBox="0 0 32 32">
  <defs>
    <linearGradient id="g" x1="0" y1="0" x2="0" y2="1">
      <stop offset="0%" stop-color="#004d7a"/>
      <stop offset="100%" stop-color="#003856"/>
    </linearGradient>
    <linearGradient id="a" x1="0" y1="0" x2="1" y2="1">
      <stop offset="0%" stop-color="#D4A853"/>
      <stop offset="100%" stop-color="#C8985A"/>
    </linearGradient>
  </defs>
  <!-- Shield body -->
  <path d="M16 2L5 7v10c0 7.2 4.7 12.1 11 13 6.3-.9 11-5.8 11-13V7L16 2z" fill="url(#g)"/>
  <!-- Inner shield highlight -->
  <path d="M16 4.5L7 8.5v8.5c0 5.8 3.8 9.8 9 10.5 5.2-.7 9-4.7 9-10.5V8.5L16 4.5z" fill="none" stroke="#ffffff" stroke-width="0.5" opacity="0.15"/>
  <!-- Document lines (contract) -->
  <line x1="11" y1="11" x2="21" y2="11" stroke="#ffffff" stroke-width="1.2" stroke-linecap="round" opacity="0.7"/>
  <line x1="11" y1="14.5" x2="19" y2="14.5" stroke="#ffffff" stroke-width="1.2" stroke-linecap="round" opacity="0.5"/>
  <line x1="11" y1="18" x2="17" y2="18" stroke="#ffffff" stroke-width="1.2" stroke-linecap="round" opacity="0.35"/>
  <!-- AI spark node -->
  <circle cx="21" cy="19" r="2.8" fill="url(#a)"/>
  <circle cx="21" cy="19" r="1.2" fill="#ffffff"/>
  <!-- Connection lines from spark -->
  <line x1="19.5" y1="17.5" x2="17" y2="14.5" stroke="url(#a)" stroke-width="0.6" opacity="0.6"/>
  <line x1="18.8" y1="19.5" x2="17" y2="18" stroke="url(#a)" stroke-width="0.6" opacity="0.6"/>
</svg>
